<?xml version="1.0" encoding="UTF-8" standalone="no"?>
<!-- Created with Inkscape (http://www.inkscape.org/) -->

<svg
   xmlns:dc="http://purl.org/dc/elements/1.1/"
   xmlns:cc="http://creativecommons.org/ns#"
   xmlns:rdf="http://www.w3.org/1999/02/22-rdf-syntax-ns#"
   xmlns:svg="http://www.w3.org/2000/svg"
   xmlns="http://www.w3.org/2000/svg"
   xmlns:sodipodi="http://sodipodi.sourceforge.net/DTD/sodipodi-0.dtd"
   xmlns:inkscape="http://www.inkscape.org/namespaces/inkscape"
   width="100"
   height="100"
   viewBox="0 0 26.458333 26.458334"
   version="1.1"
   id="svg8"
   inkscape:version="0.92.2 (5c3e80d, 2017-08-06)"
   sodipodi:docname="cart_empty.svg">
  <defs
     id="defs2" />
  <sodipodi:namedview
     id="base"
     pagecolor="#ffffff"
     bordercolor="#666666"
     borderopacity="1.0"
     inkscape:pageopacity="0.0"
     inkscape:pageshadow="2"
     inkscape:zoom="0.98994949"
     inkscape:cx="224.13197"
     inkscape:cy="-16.429295"
     inkscape:document-units="mm"
     inkscape:current-layer="layer1"
     showgrid="false"
     units="px"
     showguides="false"
     inkscape:guide-bbox="true"
     inkscape:window-width="1714"
     inkscape:window-height="998"
     inkscape:window-x="1280"
     inkscape:window-y="28"
     inkscape:window-maximized="0" />
  <metadata
     id="metadata5">
    <rdf:RDF>
      <cc:Work
         rdf:about="">
        <dc:format>image/svg+xml</dc:format>
        <dc:type
           rdf:resource="http://purl.org/dc/dcmitype/StillImage" />
        <dc:title></dc:title>
      </cc:Work>
    </rdf:RDF>
  </metadata>
  <g
     inkscape:label="Layer 1"
     inkscape:groupmode="layer"
     id="layer1"
     transform="translate(0,-270.54165)">
    <circle
       style="opacity:1;fill:#bcd35f;fill-opacity:0.94117647;fill-rule:evenodd;stroke:none;stroke-width:0.1686646;stroke-linecap:round;stroke-linejoin:round;stroke-miterlimit:4;stroke-dasharray:none;stroke-dashoffset:0;stroke-opacity:1;paint-order:stroke markers fill"
       id="path1145"
       cx="13.234438"
       cy="284.72852"
       r="9.6262989" />
    <path
       sodipodi:nodetypes="csccsccssccc"
       inkscape:connector-curvature="0"
       id="path1045"
       d="m 6.7699941,292.75121 c -3.0618922,-1.9551 -1.917982,-19.41627 -0.3286203,-17.86873 l 1.9511833,1.89984 c 0.7496653,-0.25693 1.4993306,-0.24972 2.2489959,0.041 0.287622,0.17257 1.640932,-2.45914 2.136033,-1.98199 1.948937,1.87828 1.820178,6.26823 1.879299,5.87409 3.544842,1.38366 5.272951,3.62818 5.68849,5.30319 2.988712,-2.16771 0.74915,-4.14959 -0.73908,-3.39761 -1.759657,0.88913 0.214536,-4.86115 3.731104,-0.96205 1.66279,1.84366 -2.501649,6.92239 -3.101117,6.4483 -0.644021,2.13148 -2.893826,3.97156 -6.154483,4.64389 z"
       style="fill:#f2a553;fill-opacity:1;fill-rule:evenodd;stroke:none;stroke-width:0.23003431px;stroke-linecap:butt;stroke-linejoin:miter;stroke-opacity:1" />
    <path
       style="fill:#d77744;fill-opacity:1;fill-rule:evenodd;stroke:none;stroke-width:0.23003431px;stroke-linecap:butt;stroke-linejoin:miter;stroke-opacity:1"
       d="m 12.617191,274.78428 c -0.579187,0.0487 -1.714852,2.19525 -1.97551,2.03885 -0.7061018,-0.27385 -1.4122792,-0.29299 -2.1183812,-0.08 l 0.7866991,0.71167 c 0.7499901,-0.23877 1.5000321,-0.23205 2.2500231,0.0381 0.242994,0.13543 1.244767,-1.58156 1.849259,-1.85375 -0.181685,-0.29513 -0.390804,-0.56578 -0.631694,-0.79793 -0.04642,-0.0448 -0.100479,-0.0621 -0.160396,-0.057 z m -6.3960303,0.003 c -1.4671819,0.15125 -2.3693401,16.10123 0.5490272,17.96469 h 7.3116741 c 1.039537,-0.21435 1.974847,-0.54847 2.789618,-0.97181 -0.578244,0.21207 -1.201247,0.38779 -1.86948,0.51578 H 7.6867298 C 4.7381501,290.54664 5.6883691,275.44885 7.1817335,275.60369 l -0.7404232,-0.72065 c -0.0745,-0.0725 -0.1479946,-0.10359 -0.2201496,-0.0962 z m 14.8021673,5.50285 c -1.956308,-0.0694 -2.736789,2.99864 -1.417046,2.3318 0.08824,-0.0446 0.179098,-0.0788 0.271367,-0.1047 0.03617,-0.73569 0.964571,-2.07505 2.456246,-1.74906 -0.478731,-0.3208 -0.918741,-0.46415 -1.310567,-0.47804 z m -5.457474,0.82174 c 0.0025,0.0162 0.0054,0.0166 0.0085,0.005 -0.0029,-0.002 -0.0056,-0.004 -0.0085,-0.005 z m 5.6929,1.61967 c -0.02152,-5e-4 -0.04313,8.8e-4 -0.0647,0.002 0.70986,0.47555 1.00283,1.51816 -0.148713,2.69167 0.09594,0.21165 0.170142,0.41729 0.222846,0.61462 2.522817,-1.69974 1.321763,-3.27617 -0.0094,-3.30764 z"
       id="path1058"
       inkscape:connector-curvature="0" />
    <circle
       style="opacity:1;fill:#ffffff;fill-opacity:1;fill-rule:evenodd;stroke:none;stroke-width:0.11501715;stroke-linecap:round;stroke-linejoin:round;stroke-miterlimit:4;stroke-dasharray:none;stroke-dashoffset:0;stroke-opacity:1;paint-order:stroke markers fill"
       id="path951"
       cx="7.3868065"
       cy="278.54404"
       r="0.85686344" />
    <circle
       style="opacity:1;fill:#000000;fill-opacity:1;fill-rule:evenodd;stroke:none;stroke-width:0.14240219;stroke-linecap:round;stroke-linejoin:round;stroke-miterlimit:4;stroke-dasharray:none;stroke-dashoffset:0;stroke-opacity:1;paint-order:stroke markers fill"
       id="path953"
       cx="7.3868065"
       cy="278.57309"
       r="0.37760085" />
    <ellipse
       style="opacity:1;fill:#fffdaf;fill-opacity:1;fill-rule:evenodd;stroke:none;stroke-width:0.13229166;stroke-linecap:round;stroke-linejoin:round;stroke-miterlimit:4;stroke-dasharray:none;stroke-dashoffset:0;stroke-opacity:1;paint-order:stroke markers fill"
       id="path954"
       cx="9.5911455"
       cy="280.05011"
       rx="1.2992932"
       ry="1.2166108" />
    <circle
       r="0.85686344"
       cy="278.54404"
       cx="11.743739"
       id="circle965"
       style="opacity:1;fill:#ffffff;fill-opacity:1;fill-rule:evenodd;stroke:none;stroke-width:0.11501715;stroke-linecap:round;stroke-linejoin:round;stroke-miterlimit:4;stroke-dasharray:none;stroke-dashoffset:0;stroke-opacity:1;paint-order:stroke markers fill" />
    <circle
       r="0.37760085"
       cy="278.57309"
       cx="11.743739"
       id="circle967"
       style="opacity:1;fill:#000000;fill-opacity:1;fill-rule:evenodd;stroke:none;stroke-width:0.14240219;stroke-linecap:round;stroke-linejoin:round;stroke-miterlimit:4;stroke-dasharray:none;stroke-dashoffset:0;stroke-opacity:1;paint-order:stroke markers fill" />
    <path
       style="opacity:1;fill:#ff569b;fill-opacity:1;fill-rule:evenodd;stroke:none;stroke-width:0.23039657;stroke-linecap:round;stroke-linejoin:round;stroke-miterlimit:4;stroke-dasharray:none;stroke-dashoffset:0;stroke-opacity:1;paint-order:stroke markers fill"
       d="m 9.5218046,280.48864 c -0.1280883,0.0635 -0.2151686,0.2496 -0.2152077,0.46007 2.53e-4,0.25596 0.1280031,0.46711 0.2911382,0.48118 -0.00225,0.0582 -0.00347,0.11711 -0.00357,0.17612 9.4e-6,0.62973 0.1219254,1.14013 0.2722669,1.13983 0.1216737,-6.8e-4 0.228436,-0.33978 0.261484,-0.83027 0.03917,0.0253 0.08034,0.044 0.122656,0.0557 -0.01958,0.13153 -0.02994,0.27966 -0.0301,0.43041 8e-6,0.49076 0.105833,0.88851 0.236324,0.88824 0.130491,2.3e-4 0.236315,-0.39748 0.236324,-0.88824 -1.44e-4,-0.19313 -0.01702,-0.38082 -0.04807,-0.53464 -0.17588,-1.29175 -0.599379,-1.46816 -1.1232145,-1.37841 z"
       id="path982"
       inkscape:connector-curvature="0"
       sodipodi:nodetypes="cccccccccccc" />
    <ellipse
       style="opacity:1;fill:#d33d87;fill-opacity:1;fill-rule:evenodd;stroke:none;stroke-width:0.23039657;stroke-linecap:round;stroke-linejoin:round;stroke-miterlimit:4;stroke-dasharray:none;stroke-dashoffset:0;stroke-opacity:1;paint-order:stroke markers fill"
       id="path1053"
       cx="9.8816195"
       cy="281.72186"
       rx="0.11296328"
       ry="0.78047347" />
    <ellipse
       style="opacity:1;fill:#d33d87;fill-opacity:1;fill-rule:evenodd;stroke:none;stroke-width:0.23039657;stroke-linecap:round;stroke-linejoin:round;stroke-miterlimit:4;stroke-dasharray:none;stroke-dashoffset:0;stroke-opacity:1;paint-order:stroke markers fill"
       id="path1055"
       cx="10.451199"
       cy="282.44217"
       rx="0.20062302"
       ry="0.47092339" />
    <path
       style="fill:none;fill-rule:evenodd;stroke:#000000;stroke-width:0.13229167;stroke-linecap:round;stroke-linejoin:round;stroke-miterlimit:4;stroke-dasharray:none;stroke-opacity:1"
       d="m 9.04405,279.044 c 0.1766246,0.19156 0.3155615,0.21351 0.4711636,0.25699 0.197796,-0.054 0.3420427,-0.13518 0.4949884,-0.25699"
       id="path970"
       inkscape:connector-curvature="0"
       sodipodi:nodetypes="ccc" />
    <path
       style="fill:none;fill-rule:evenodd;stroke:#000000;stroke-width:0.13229167;stroke-linecap:round;stroke-linejoin:round;stroke-miterlimit:4;stroke-dasharray:none;stroke-opacity:1"
       d="m 9.5152136,279.30099 0.00696,1.24727 c 0.5307014,-0.13362 0.7393964,0.26701 0.7393964,0.26701"
       id="path980"
       inkscape:connector-curvature="0"
       sodipodi:nodetypes="ccc" />
    <path
       style="fill:none;fill-rule:evenodd;stroke:#000000;stroke-width:0.13229167;stroke-linecap:round;stroke-linejoin:round;stroke-miterlimit:4;stroke-dasharray:none;stroke-opacity:1"
       d="m 6.9651121,276.68417 0.010268,0.68805"
       id="path994"
       inkscape:connector-curvature="0" />
    <path
       inkscape:connector-curvature="0"
       id="path996"
       d="m 7.5401976,276.92037 0.010268,0.40051"
       style="fill:none;fill-rule:evenodd;stroke:#000000;stroke-width:0.13229167;stroke-linecap:round;stroke-linejoin:round;stroke-miterlimit:4;stroke-dasharray:none;stroke-opacity:1"
       sodipodi:nodetypes="cc" />
    <path
       inkscape:connector-curvature="0"
       id="path998"
       d="m 12.058746,276.68417 -0.01027,0.68805"
       style="fill:none;fill-rule:evenodd;stroke:#000000;stroke-width:0.13229167;stroke-linecap:round;stroke-linejoin:round;stroke-miterlimit:4;stroke-dasharray:none;stroke-opacity:1" />
    <path
       sodipodi:nodetypes="cc"
       style="fill:none;fill-rule:evenodd;stroke:#000000;stroke-width:0.13229167;stroke-linecap:round;stroke-linejoin:round;stroke-miterlimit:4;stroke-dasharray:none;stroke-opacity:1"
       d="m 11.483659,276.92037 -0.01026,0.40051"
       id="path1000"
       inkscape:connector-curvature="0" />
    <path
       style="fill:none;fill-rule:evenodd;stroke:#000000;stroke-width:0.13229167;stroke-linecap:round;stroke-linejoin:round;stroke-miterlimit:4;stroke-dasharray:none;stroke-opacity:1"
       d="m 6.326618,280.50467 1.4523104,-0.33403"
       id="path1002"
       inkscape:connector-curvature="0" />
    <path
       inkscape:connector-curvature="0"
       id="path1004"
       d="m 6.4666069,281.147 1.3756563,-0.57302"
       style="fill:none;fill-rule:evenodd;stroke:#000000;stroke-width:0.13229167;stroke-linecap:round;stroke-linejoin:round;stroke-miterlimit:4;stroke-dasharray:none;stroke-opacity:1" />
    <path
       inkscape:connector-curvature="0"
       id="path1006"
       d="m 13.012406,280.41753 -1.45231,-0.33404"
       style="fill:none;fill-rule:evenodd;stroke:#000000;stroke-width:0.13229167;stroke-linecap:round;stroke-linejoin:round;stroke-miterlimit:4;stroke-dasharray:none;stroke-opacity:1" />
    <path
       style="fill:none;fill-rule:evenodd;stroke:#000000;stroke-width:0.13229167;stroke-linecap:round;stroke-linejoin:round;stroke-miterlimit:4;stroke-dasharray:none;stroke-opacity:1"
       d="m 12.872417,281.05985 -1.375656,-0.57301"
       id="path1008"
       inkscape:connector-curvature="0" />
    <path
       style="fill:none;fill-rule:evenodd;stroke:#000000;stroke-width:0.13229167;stroke-linecap:butt;stroke-linejoin:miter;stroke-miterlimit:4;stroke-dasharray:none;stroke-opacity:1"
       d="m 6.7699941,292.75121 c -3.0618922,-1.9551 -1.917982,-19.41627 -0.3286203,-17.86873 l 1.9511833,1.89984 c 0.7496653,-0.25693 1.4993306,-0.24972 2.2489959,0.041 0.287622,0.17257 1.640932,-2.45914 2.136033,-1.98199 1.948937,1.87828 1.820178,6.26823 1.879299,5.87409 3.544842,1.38366 5.272951,3.62818 5.68849,5.30319 2.988712,-2.16771 0.74915,-4.14959 -0.73908,-3.39761 -1.759657,0.88913 0.214536,-4.86115 3.731104,-0.96205 1.66279,1.84366 -2.501649,6.92239 -3.101117,6.4483 -0.644021,2.13148 -2.893826,3.97156 -6.154483,4.64389 z"
       id="path1010"
       inkscape:connector-curvature="0"
       sodipodi:nodetypes="csccsccssccc" />
    <path
       sodipodi:nodetypes="ccscscccssssssssssssssssssssssssssss"
       inkscape:connector-curvature="0"
       id="path1106"
       d="m 4.3052123,288.27363 1.7252574,3.94338 c 0.2827644,0.64633 0.5682563,1.27373 1.2737253,1.27373 h 5.627304 5.627305 c 0.705468,0 0.990961,-0.6274 1.273725,-1.27373 l 1.725258,-3.94338 z m 4.2929255,0.98619 c 0.37549,0 0.6775233,0.33143 0.6775233,0.74312 v 2.25182 c 0,0.41167 -0.3020333,0.74311 -0.6775233,0.74311 -0.3754898,0 -0.6779719,-0.33144 -0.6779719,-0.74311 v -2.25182 c 0,-0.41169 0.3024821,-0.74312 0.6779719,-0.74312 z m 2.5056672,0 c 0.375489,0 0.677522,0.33143 0.677522,0.74312 v 2.25182 c 0,0.41167 -0.302033,0.74311 -0.677522,0.74311 -0.375491,0 -0.677973,-0.33144 -0.677973,-0.74311 v -2.25182 c 0,-0.41169 0.302482,-0.74312 0.677973,-0.74312 z m 3.655388,0 c 0.37549,0 0.677972,0.33143 0.677972,0.74312 v 2.25182 c 0,0.41167 -0.302482,0.74311 -0.677972,0.74311 -0.37549,0 -0.677523,-0.33144 -0.677523,-0.74311 v -2.25182 c 0,-0.41169 0.302033,-0.74312 0.677523,-0.74312 z m 2.505668,0 c 0.37549,0 0.677972,0.33143 0.677972,0.74312 v 2.25182 c 0,0.41167 -0.302482,0.74311 -0.677972,0.74311 -0.375491,0 -0.677524,-0.33144 -0.677524,-0.74311 v -2.25182 c 0,-0.41169 0.302033,-0.74312 0.677524,-0.74312 z"
       style="opacity:1;fill:#ff9fcf;fill-opacity:1;fill-rule:evenodd;stroke:none;stroke-width:0.13229167;stroke-linecap:round;stroke-linejoin:round;stroke-miterlimit:4;stroke-dasharray:none;stroke-dashoffset:0;stroke-opacity:1;paint-order:stroke markers fill" />
    <path
       style="opacity:1;fill:none;fill-opacity:1;fill-rule:evenodd;stroke:#000000;stroke-width:0.13229167;stroke-linecap:round;stroke-linejoin:round;stroke-miterlimit:4;stroke-dasharray:none;stroke-dashoffset:0;stroke-opacity:1;paint-order:stroke markers fill"
       d="m 4.3052123,288.27363 1.7252574,3.94338 c 0.2827644,0.64633 0.5682563,1.27373 1.2737253,1.27373 h 5.627304 5.627305 c 0.705468,0 0.990961,-0.6274 1.273725,-1.27373 l 1.725258,-3.94338 z m 4.2929255,0.98619 c 0.37549,0 0.6775233,0.33143 0.6775233,0.74312 v 2.25182 c 0,0.41167 -0.3020333,0.74311 -0.6775233,0.74311 -0.3754898,0 -0.6779719,-0.33144 -0.6779719,-0.74311 v -2.25182 c 0,-0.41169 0.3024821,-0.74312 0.6779719,-0.74312 z m 2.5056672,0 c 0.375489,0 0.677522,0.33143 0.677522,0.74312 v 2.25182 c 0,0.41167 -0.302033,0.74311 -0.677522,0.74311 -0.375491,0 -0.677973,-0.33144 -0.677973,-0.74311 v -2.25182 c 0,-0.41169 0.302482,-0.74312 0.677973,-0.74312 z m 3.655388,0 c 0.37549,0 0.677972,0.33143 0.677972,0.74312 v 2.25182 c 0,0.41167 -0.302482,0.74311 -0.677972,0.74311 -0.37549,0 -0.677523,-0.33144 -0.677523,-0.74311 v -2.25182 c 0,-0.41169 0.302033,-0.74312 0.677523,-0.74312 z m 2.505668,0 c 0.37549,0 0.677972,0.33143 0.677972,0.74312 v 2.25182 c 0,0.41167 -0.302482,0.74311 -0.677972,0.74311 -0.375491,0 -0.677524,-0.33144 -0.677524,-0.74311 v -2.25182 c 0,-0.41169 0.302033,-0.74312 0.677524,-0.74312 z"
       id="rect1016"
       inkscape:connector-curvature="0"
       sodipodi:nodetypes="ccscscccssssssssssssssssssssssssssss" />
    <path
       inkscape:connector-curvature="0"
       id="path1108"
       d="m 12.907238,285.83806 a 1.6431021,1.6431021 0 0 0 -1.429179,0.83387 h -7.37817 c -0.4551393,0 -0.8212951,0.36616 -0.8212951,0.82129 0,0.45515 0.3661558,0.82175 0.8212951,0.82175 h 7.393446 a 1.6431021,1.6431021 0 0 0 1.413903,0.80961 1.6431021,1.6431021 0 0 0 1.413452,-0.80961 h 7.44242 c 0.45514,0 0.821744,-0.3666 0.821744,-0.82175 0,-0.45513 -0.366604,-0.82129 -0.821744,-0.82129 h -7.428492 a 1.6431021,1.6431021 0 0 0 -1.42738,-0.83387 z m 0.01932,0.84375 a 0.82668588,0.82668588 0 0 1 0.826686,0.82669 0.82668588,0.82668588 0 0 1 -0.826686,0.82669 0.82668588,0.82668588 0 0 1 -0.826686,-0.82669 0.82668588,0.82668588 0 0 1 0.826686,-0.82669 z"
       style="opacity:1;fill:#ff569b;fill-opacity:1;fill-rule:evenodd;stroke:none;stroke-width:0.13229167;stroke-linecap:round;stroke-linejoin:round;stroke-miterlimit:4;stroke-dasharray:none;stroke-dashoffset:0;stroke-opacity:1;paint-order:stroke markers fill" />
    <path
       style="opacity:1;fill:none;fill-opacity:1;fill-rule:evenodd;stroke:#000000;stroke-width:0.13229167;stroke-linecap:round;stroke-linejoin:round;stroke-miterlimit:4;stroke-dasharray:none;stroke-dashoffset:0;stroke-opacity:1;paint-order:stroke markers fill"
       d="m 12.907238,285.83806 a 1.6431021,1.6431021 0 0 0 -1.429179,0.83387 h -7.37817 c -0.4551393,0 -0.8212951,0.36616 -0.8212951,0.82129 0,0.45515 0.3661558,0.82175 0.8212951,0.82175 h 7.393446 a 1.6431021,1.6431021 0 0 0 1.413903,0.80961 1.6431021,1.6431021 0 0 0 1.413452,-0.80961 h 7.44242 c 0.45514,0 0.821744,-0.3666 0.821744,-0.82175 0,-0.45513 -0.366604,-0.82129 -0.821744,-0.82129 h -7.428492 a 1.6431021,1.6431021 0 0 0 -1.42738,-0.83387 z m 0.01932,0.84375 a 0.82668588,0.82668588 0 0 1 0.826686,0.82669 0.82668588,0.82668588 0 0 1 -0.826686,0.82669 0.82668588,0.82668588 0 0 1 -0.826686,-0.82669 0.82668588,0.82668588 0 0 1 0.826686,-0.82669 z"
       id="rect1012"
       inkscape:connector-curvature="0" />
    <rect
       transform="rotate(29.621741)"
       ry="0.65724093"
       y="234.23799"
       x="152.68596"
       height="9.9818459"
       width="1.3144819"
       id="rect1110"
       style="opacity:1;fill:#d33d87;fill-opacity:1;fill-rule:evenodd;stroke:none;stroke-width:0.13229167;stroke-linecap:round;stroke-linejoin:round;stroke-miterlimit:4;stroke-dasharray:none;stroke-dashoffset:0;stroke-opacity:1;paint-order:stroke markers fill" />
    <rect
       style="opacity:1;fill:none;fill-opacity:1;fill-rule:evenodd;stroke:#000000;stroke-width:0.13229167;stroke-linecap:round;stroke-linejoin:round;stroke-miterlimit:4;stroke-dasharray:none;stroke-dashoffset:0;stroke-opacity:1;paint-order:stroke markers fill"
       id="rect1039"
       width="1.3144819"
       height="9.9818459"
       x="152.68596"
       y="234.23799"
       ry="0.65724093"
       transform="rotate(29.621741)" />
  </g>
</svg>
