<?xml version="1.0" encoding="UTF-8" standalone="no"?>
<!-- Created with Inkscape (http://www.inkscape.org/) -->

<svg
   xmlns:dc="http://purl.org/dc/elements/1.1/"
   xmlns:cc="http://creativecommons.org/ns#"
   xmlns:rdf="http://www.w3.org/1999/02/22-rdf-syntax-ns#"
   xmlns:svg="http://www.w3.org/2000/svg"
   xmlns="http://www.w3.org/2000/svg"
   xmlns:sodipodi="http://sodipodi.sourceforge.net/DTD/sodipodi-0.dtd"
   xmlns:inkscape="http://www.inkscape.org/namespaces/inkscape"
   width="100"
   height="100"
   viewBox="0 0 26.458333 26.458334"
   version="1.1"
   id="svg8"
   inkscape:version="0.92.2 (5c3e80d, 2017-08-06)"
   sodipodi:docname="error_404.svg">
  <defs
     id="defs2" />
  <sodipodi:namedview
     id="base"
     pagecolor="#ffffff"
     bordercolor="#666666"
     borderopacity="1.0"
     inkscape:pageopacity="0.0"
     inkscape:pageshadow="2"
     inkscape:zoom="0.98994949"
     inkscape:cx="204.28127"
     inkscape:cy="78.109357"
     inkscape:document-units="mm"
     inkscape:current-layer="layer1"
     showgrid="false"
     units="px"
     showguides="false"
     inkscape:guide-bbox="true"
     inkscape:window-width="1714"
     inkscape:window-height="998"
     inkscape:window-x="1280"
     inkscape:window-y="28"
     inkscape:window-maximized="0" />
  <metadata
     id="metadata5">
    <rdf:RDF>
      <cc:Work
         rdf:about="">
        <dc:format>image/svg+xml</dc:format>
        <dc:type
           rdf:resource="http://purl.org/dc/dcmitype/StillImage" />
        <dc:title></dc:title>
      </cc:Work>
    </rdf:RDF>
  </metadata>
  <g
     inkscape:label="Layer 1"
     inkscape:groupmode="layer"
     id="layer1"
     transform="translate(0,-270.54165)">
    <circle
       r="9.6262989"
       cy="284.39441"
       cx="13.234439"
       id="circle890"
       style="opacity:1;fill:#bcd35f;fill-opacity:1;fill-rule:evenodd;stroke:none;stroke-width:0.1686646;stroke-linecap:round;stroke-linejoin:round;stroke-miterlimit:4;stroke-dasharray:none;stroke-dashoffset:0;stroke-opacity:1;paint-order:stroke markers fill" />
    <path
       sodipodi:nodetypes="ccccssscccccccccccc"
       inkscape:connector-curvature="0"
       id="path892"
       d="m 9.5445466,274.98302 c -0.730664,-0.0535 -0.535637,2.75272 -0.535637,2.75272 -1.877892,1.28968 -1.905293,6.22356 -0.932451,7.39571 l -1.429591,3.28343 c -0.242924,0.55796 -0.163724,1.20648 0.06973,1.86107 0.182237,0.51097 -1.74626,1.65149 -2.672726,0.17993 -0.281266,-0.44675 0.534373,-2.79774 -0.951399,-2.20243 -2.63891203,1.05734 1.058792,6.47141 4.584667,3.46909 -0.183014,-0.23115 -0.366028,-0.48756 -0.549042,-0.91651 0.46842,1.35032 2.405147,2.45333 3.3042544,2.45333 1.888922,0 3.777844,0 5.666767,0 2.038493,0 4.599239,-2.97545 3.785492,-4.84448 l -1.429592,-3.28343 c 0.972845,-1.17214 0.945444,-6.10603 -0.932449,-7.39571 0,0 0.195028,-2.80621 -0.535636,-2.75272 -0.686609,0.28151 -1.346628,1.07362 -1.792417,1.4884 -1.258435,-0.32119 -2.945134,-0.29269 -3.857565,0 -0.907369,-0.87989 -1.280745,-1.24106 -1.7924134,-1.4884 z"
       style="opacity:1;fill:#f2a553;fill-opacity:1;fill-rule:evenodd;stroke:none;stroke-width:0.13229167;stroke-linecap:round;stroke-linejoin:round;stroke-miterlimit:4;stroke-dasharray:none;stroke-dashoffset:0;stroke-opacity:1;paint-order:stroke markers fill" />
    <path
       style="opacity:1;fill:#d77744;fill-opacity:1;fill-rule:evenodd;stroke:none;stroke-width:0.13229167;stroke-linecap:round;stroke-linejoin:round;stroke-miterlimit:4;stroke-dasharray:none;stroke-dashoffset:0;stroke-opacity:1;paint-order:stroke markers fill"
       d="m 16.986825,274.98283 c -0.03085,0.0126 -0.06126,0.0314 -0.09198,0.046 0.192741,0.80691 0.0987,2.17764 0.0987,2.17764 0.196937,0.13526 0.372467,0.31248 0.529682,0.51935 0.0021,-0.0311 0.190164,-2.79617 -0.5364,-2.74298 z m 0.553453,2.76624 c 1.324006,1.77773 1.252572,5.80863 0.385506,6.85333 l 1.429887,3.28352 c 0.813747,1.86903 -1.747321,4.84414 -3.785814,4.84414 H 9.9030195 c -0.5549397,0 -1.5045531,-0.42069 -2.2608434,-1.05988 0.776904,0.92608 2.0934865,1.58905 2.7900099,1.58905 h 5.666837 c 2.038493,0 4.599562,-2.97512 3.785815,-4.84415 l -1.429888,-3.28352 c 0.969722,-1.16837 0.945348,-6.0737 -0.914672,-7.38249 z m -13.9919098,10.4097 c -0.026387,-0.002 -0.054959,-7.9e-4 -0.084233,10e-4 0.09475,0.59358 -0.114046,1.50523 0.050644,1.76682 0.152707,0.24255 0.3338857,0.40834 0.5271003,0.52348 -0.2387785,-0.4005 0.3463317,-2.23426 -0.4935114,-2.29133 z m 3.1465784,2.32234 c -0.00203,0.005 -0.00295,0.009 -0.00517,0.0134 0.09253,0.19692 0.2151989,0.38639 0.3586348,0.56741 -0.1177184,-0.15772 -0.2357491,-0.34088 -0.3534675,-0.58084 z m 0.3534675,0.58084 c 0.033261,0.0446 0.066474,0.0892 0.099735,0.13126 -1.5706672,1.33744 -3.1739496,1.00294 -4.2374688,0.12919 1.000297,1.22504 2.9069215,1.98354 4.7666354,0.39997 -0.015849,-0.02 -0.031694,-0.042 -0.047543,-0.0625 -0.2150242,-0.18292 -0.4120409,-0.38422 -0.5813583,-0.5979 z"
       id="path899"
       inkscape:connector-curvature="0" />
    <path
       style="opacity:1;fill:#d77744;fill-opacity:1;fill-rule:evenodd;stroke:none;stroke-width:0.13229167;stroke-linecap:round;stroke-linejoin:round;stroke-miterlimit:4;stroke-dasharray:none;stroke-dashoffset:0;stroke-opacity:1;paint-order:stroke markers fill"
       d="m 9.5443847,274.98283 c -0.7265643,-0.0532 -0.5380249,2.71185 -0.5358844,2.74298 0.1572154,-0.20687 0.3327453,-0.38409 0.5296826,-0.51935 0,0 -0.094223,-1.36779 0.097668,-2.17506 -0.030401,-0.0161 -0.060185,-0.0335 -0.091466,-0.0486 z m -0.5529368,2.76624 c -1.8600208,1.30879 -1.8849075,6.21411 -0.9151911,7.38249 l -1.4293691,3.28352 c -0.2429245,0.55796 -0.1636924,1.20628 0.069763,1.86087 0.015774,0.0442 0.010739,0.0942 -0.0031,0.14573 0.3671067,-0.19801 0.601255,-0.48146 0.5322675,-0.6749 -0.2334551,-0.65459 -0.3126872,-1.3029 -0.069763,-1.86086 l 1.4293691,-3.28352 c -0.8670634,-1.0447 -0.9379823,-5.07561 0.3860236,-6.85333 z m -6.0998867,10.60245 c -2.23291393,1.25157 1.3566643,6.29076 4.7857542,3.37085 -0.024858,-0.0314 -0.049556,-0.0655 -0.074414,-0.0982 -2.8529889,1.68694 -5.5723075,-1.65955 -4.7113402,-3.27267 z m 4.7656009,1.92546 c 0.0953,0.27473 0.2538307,0.53792 0.4495853,0.78497 -0.1497542,-0.20063 -0.2998338,-0.43397 -0.4495853,-0.78497 z m 0.4495853,0.78497 c 0.033261,0.0446 0.066474,0.0892 0.099735,0.13126 -0.2006785,0.17088 -0.401955,0.31124 -0.6025462,0.42995 0.7711122,0.95048 2.1200586,1.63607 2.8282498,1.63607 h 5.666837 c 0.954609,0 2.019957,-0.65568 2.803446,-1.54151 -0.698807,0.60557 -1.521793,1.01234 -2.274279,1.01234 h -5.666837 c -0.71618,0 -2.0882056,-0.70089 -2.8546056,-1.66811 z"
       id="path894"
       inkscape:connector-curvature="0" />
    <path
       style="opacity:1;fill:none;fill-opacity:1;fill-rule:evenodd;stroke:#000000;stroke-width:0.13229167;stroke-linecap:round;stroke-linejoin:round;stroke-miterlimit:4;stroke-dasharray:none;stroke-dashoffset:0;stroke-opacity:1;paint-order:stroke markers fill"
       d="m 9.5445466,274.98302 c -0.730664,-0.0535 -0.535637,2.75272 -0.535637,2.75272 -1.877892,1.28968 -1.905293,6.22356 -0.932451,7.39571 l -1.429591,3.28343 c -0.242924,0.55796 -0.163724,1.20648 0.06973,1.86107 0.182237,0.51097 -1.74626,1.65149 -2.672726,0.17993 -0.281266,-0.44675 0.534373,-2.79774 -0.951399,-2.20243 -2.63891203,1.05734 1.058792,6.47141 4.584667,3.46909 -0.183014,-0.23115 -0.366028,-0.48756 -0.549042,-0.91651 0.46842,1.35032 2.405147,2.45333 3.3042544,2.45333 1.888922,0 3.777844,0 5.666767,0 2.038493,0 4.599239,-2.97545 3.785492,-4.84448 l -1.429592,-3.28343 c 0.972845,-1.17214 0.945444,-6.10603 -0.932449,-7.39571 0,0 0.195028,-2.80621 -0.535636,-2.75272 -0.686609,0.28151 -1.346628,1.07362 -1.792417,1.4884 -1.258435,-0.32119 -2.945134,-0.29269 -3.857565,0 -0.907369,-0.87989 -1.280745,-1.24106 -1.7924134,-1.4884 z"
       id="rect847"
       inkscape:connector-curvature="0"
       sodipodi:nodetypes="ccccssscccccccccccc" />
    <ellipse
       ry="1.6676282"
       rx="1.7503105"
       cy="283.47449"
       cx="13.199283"
       id="ellipse956"
       style="opacity:1;fill:#fffdaf;fill-opacity:1;fill-rule:evenodd;stroke:none;stroke-width:0.1797671;stroke-linecap:round;stroke-linejoin:round;stroke-miterlimit:4;stroke-dasharray:none;stroke-dashoffset:0;stroke-opacity:1;paint-order:stroke markers fill" />
    <path
       style="opacity:1;fill:none;fill-rule:evenodd;stroke:#000000;stroke-width:0.13229167;stroke-linecap:round;stroke-linejoin:round;stroke-miterlimit:4;stroke-dasharray:none;stroke-opacity:1"
       d="m 12.365539,282.37832 c 0.197743,0.20214 0.530625,0.25163 0.847187,0.31769 0.325848,-0.0801 0.690037,-0.12184 0.900134,-0.31769"
       id="path856"
       inkscape:connector-curvature="0"
       sodipodi:nodetypes="ccc" />
    <path
       style="opacity:1;fill:none;fill-rule:evenodd;stroke:#000000;stroke-width:0.13229167;stroke-linecap:round;stroke-linejoin:round;stroke-miterlimit:4;stroke-dasharray:none;stroke-opacity:1"
       d="m 13.212726,282.69601 v 0.95548 c -0.365406,0.31916 -0.784495,0.54288 -1.308362,0.58033"
       id="path858"
       inkscape:connector-curvature="0"
       sodipodi:nodetypes="ccc" />
    <path
       style="opacity:1;fill:none;fill-rule:evenodd;stroke:#000000;stroke-width:0.13229167;stroke-linecap:round;stroke-linejoin:round;stroke-miterlimit:4;stroke-dasharray:none;stroke-opacity:1"
       d="m 13.212726,283.65149 c 0.355569,0.30168 0.721598,0.57545 1.181446,0.59905"
       id="path860"
       inkscape:connector-curvature="0"
       sodipodi:nodetypes="cc" />
    <path
       style="opacity:1;fill:none;fill-rule:evenodd;stroke:#000000;stroke-width:0.13229167;stroke-linecap:round;stroke-linejoin:round;stroke-miterlimit:4;stroke-dasharray:none;stroke-opacity:1"
       d="m 10.750589,278.93662 0.185323,0.90014"
       id="path866"
       inkscape:connector-curvature="0" />
    <path
       style="opacity:1;fill:none;fill-rule:evenodd;stroke:#000000;stroke-width:0.13229167;stroke-linecap:round;stroke-linejoin:round;stroke-miterlimit:4;stroke-dasharray:none;stroke-opacity:1"
       d="m 11.333028,278.77778 0.172086,0.92661"
       id="path868"
       inkscape:connector-curvature="0" />
    <path
       style="opacity:1;fill:none;fill-rule:evenodd;stroke:#000000;stroke-width:0.13229167;stroke-linecap:round;stroke-linejoin:round;stroke-miterlimit:4;stroke-dasharray:none;stroke-opacity:1"
       d="m 15.079182,278.76454 -0.14561,0.9928"
       id="path870"
       inkscape:connector-curvature="0" />
    <path
       style="opacity:1;fill:none;fill-rule:evenodd;stroke:#000000;stroke-width:0.13229167;stroke-linecap:round;stroke-linejoin:round;stroke-miterlimit:4;stroke-dasharray:none;stroke-opacity:1"
       d="m 15.741047,278.89692 -0.105897,1.00603"
       id="path872"
       inkscape:connector-curvature="0" />
    <ellipse
       style="opacity:1;fill:#ffffff;fill-opacity:1;fill-rule:evenodd;stroke:none;stroke-width:0.13229167;stroke-linecap:round;stroke-linejoin:round;stroke-miterlimit:4;stroke-dasharray:none;stroke-dashoffset:0;stroke-opacity:1;paint-order:stroke markers fill"
       id="path882"
       cx="9.254775"
       cy="281.45169"
       rx="1.8399839"
       ry="1.800272" />
    <circle
       style="opacity:1;fill:#000000;fill-opacity:1;fill-rule:evenodd;stroke:none;stroke-width:0.13229167;stroke-linecap:round;stroke-linejoin:round;stroke-miterlimit:4;stroke-dasharray:none;stroke-dashoffset:0;stroke-opacity:1;paint-order:stroke markers fill"
       id="path884"
       cx="10.035773"
       cy="281.99442"
       r="0.52949172" />
    <ellipse
       ry="1.800272"
       rx="1.8399839"
       cy="281.45169"
       cx="-17.197149"
       id="ellipse886"
       style="opacity:1;fill:#ffffff;fill-opacity:1;fill-rule:evenodd;stroke:none;stroke-width:0.13229167;stroke-linecap:round;stroke-linejoin:round;stroke-miterlimit:4;stroke-dasharray:none;stroke-dashoffset:0;stroke-opacity:1;paint-order:stroke markers fill"
       transform="scale(-1,1)" />
    <circle
       r="0.52949172"
       cy="281.99442"
       cx="-16.416151"
       id="circle888"
       style="opacity:1;fill:#000000;fill-opacity:1;fill-rule:evenodd;stroke:none;stroke-width:0.13229167;stroke-linecap:round;stroke-linejoin:round;stroke-miterlimit:4;stroke-dasharray:none;stroke-dashoffset:0;stroke-opacity:1;paint-order:stroke markers fill"
       transform="scale(-1,1)" />
    <path
       style="opacity:1;fill:#ff9fcf;fill-opacity:1;fill-rule:evenodd;stroke:none;stroke-width:0.13229167;stroke-linecap:round;stroke-linejoin:round;stroke-miterlimit:4;stroke-dasharray:none;stroke-dashoffset:0;stroke-opacity:1;paint-order:stroke markers fill"
       d="m 13.212917,276.13292 a 6.4836808,6.4836808 0 0 0 -6.4837384,6.48374 6.4836808,6.4836808 0 0 0 6.4837384,6.48374 6.4836808,6.4836808 0 0 0 2.039759,-0.33785 l 1.952534,3.66633 c 0.276602,0.51932 0.841972,0.75487 1.267426,0.52826 0.425452,-0.2266 0.545242,-0.82673 0.268638,-1.34604 l -1.923869,-3.61146 a 6.4836808,6.4836808 0 0 0 2.878841,-5.38298 6.4836808,6.4836808 0 0 0 -6.483329,-6.48374 z m -4.09e-4,1.48324 a 4.9210511,4.9210511 0 0 1 4.921055,4.92105 4.9210511,4.9210511 0 0 1 -4.921055,4.92106 4.9210511,4.9210511 0 0 1 -4.9210574,-4.92106 4.9210511,4.9210511 0 0 1 4.9210574,-4.92105 z"
       id="path874"
       inkscape:connector-curvature="0" />
    <path
       style="opacity:1;fill:#ff569b;fill-opacity:1;fill-rule:evenodd;stroke:none;stroke-width:0.13229167;stroke-linecap:round;stroke-linejoin:round;stroke-miterlimit:4;stroke-dasharray:none;stroke-dashoffset:0;stroke-opacity:1;paint-order:stroke markers fill"
       d="m 13.212377,277.08709 a 4.921051,4.921051 0 0 0 -4.9211462,4.92115 4.921051,4.921051 0 0 0 0.010853,0.31006 4.921051,4.921051 0 0 1 4.9102932,-4.70204 4.921051,4.921051 0 0 1 4.910296,4.61367 4.921051,4.921051 0 0 0 0.01085,-0.22169 4.921051,4.921051 0 0 0 -4.921146,-4.92115 z m -6.4719564,5.22139 a 6.4836806,6.4836806 0 0 0 -0.011367,0.30799 6.4836806,6.4836806 0 0 0 6.4838394,6.48384 6.4836806,6.4836806 0 0 0 2.03967,-0.33796 l 1.952853,3.66644 c 0.2766,0.51932 0.841653,0.75474 1.267105,0.52813 0.342718,-0.18253 0.482764,-0.60734 0.381373,-1.03714 -0.05741,0.21844 -0.185425,0.40361 -0.381373,0.50798 -0.425452,0.22661 -0.990505,-0.009 -1.267105,-0.52814 l -1.952853,-3.66644 a 6.4836806,6.4836806 0 0 1 -2.03967,0.33797 6.4836806,6.4836806 0 0 1 -6.4724724,-6.26267 z m 12.9439134,0.0713 a 6.4836806,6.4836806 0 0 1 -2.867009,5.09065 l 0.202054,0.37879 a 6.4836806,6.4836806 0 0 0 2.67684,-5.23276 6.4836806,6.4836806 0 0 0 -0.01189,-0.23668 z"
       id="path910"
       inkscape:connector-curvature="0" />
    <path
       inkscape:connector-curvature="0"
       id="path904"
       d="m 13.212917,276.13292 a 6.4836808,6.4836808 0 0 0 -6.4837384,6.48374 6.4836808,6.4836808 0 0 0 6.4837384,6.48374 6.4836808,6.4836808 0 0 0 2.039759,-0.33785 l 1.952534,3.66633 c 0.276602,0.51932 0.841972,0.75487 1.267426,0.52826 0.425452,-0.2266 0.545242,-0.82673 0.268638,-1.34604 l -1.923869,-3.61146 a 6.4836808,6.4836808 0 0 0 2.878841,-5.38298 6.4836808,6.4836808 0 0 0 -6.483329,-6.48374 z m -4.09e-4,1.48324 a 4.9210511,4.9210511 0 0 1 4.921055,4.92105 4.9210511,4.9210511 0 0 1 -4.921055,4.92106 4.9210511,4.9210511 0 0 1 -4.9210574,-4.92106 4.9210511,4.9210511 0 0 1 4.9210574,-4.92105 z"
       style="opacity:1;fill:none;fill-opacity:1;fill-rule:evenodd;stroke:#000000;stroke-width:0.13229167;stroke-linecap:round;stroke-linejoin:round;stroke-miterlimit:4;stroke-dasharray:none;stroke-dashoffset:0;stroke-opacity:1;paint-order:stroke markers fill" />
    <path
       sodipodi:nodetypes="cssc"
       inkscape:connector-curvature="0"
       id="path908"
       d="m 17.670234,287.86357 c 0.06887,0.11708 -0.11141,0.71116 -0.464137,1.09214 -0.479378,0.51777 -1.182123,0.84806 -1.127094,0.96709 0.568846,1.23051 2.689281,-0.37113 2.677012,-0.54288"
       style="opacity:1;fill:#f2a553;fill-opacity:1;fill-rule:evenodd;stroke:none;stroke-width:0.13229167;stroke-linecap:round;stroke-linejoin:round;stroke-miterlimit:4;stroke-dasharray:none;stroke-opacity:1" />
    <path
       style="opacity:1;fill:none;fill-rule:evenodd;stroke:#000000;stroke-width:0.13229167;stroke-linecap:round;stroke-linejoin:round;stroke-miterlimit:4;stroke-dasharray:none;stroke-opacity:1"
       d="m 17.670234,287.86357 c 0.06887,0.11708 -0.11141,0.71116 -0.464137,1.09214 -0.479378,0.51777 -1.182123,0.84806 -1.127094,0.96709 0.568846,1.23051 2.689281,-0.37113 2.677012,-0.54288"
       id="path864"
       inkscape:connector-curvature="0"
       sodipodi:nodetypes="cssc" />
    <path
       sodipodi:nodetypes="csc"
       inkscape:connector-curvature="0"
       id="path906"
       d="m 8.3662166,287.80741 c 0.07488,-0.0187 1.455763,-1.24207 2.2277224,-1.1045 0.820381,0.14619 -0.9734594,2.3026 -0.9734594,2.3026"
       style="opacity:1;fill:#f2a553;fill-opacity:1;fill-rule:evenodd;stroke:none;stroke-width:0.13229167;stroke-linecap:round;stroke-linejoin:round;stroke-miterlimit:4;stroke-dasharray:none;stroke-opacity:1" />
    <path
       style="opacity:1;fill:none;fill-rule:evenodd;stroke:#000000;stroke-width:0.13229167;stroke-linecap:round;stroke-linejoin:round;stroke-miterlimit:4;stroke-dasharray:none;stroke-opacity:1"
       d="m 8.3662166,287.80741 c 0.07488,-0.0187 1.455763,-1.24207 2.2277224,-1.1045 0.820381,0.14619 -0.9734594,2.3026 -0.9734594,2.3026"
       id="path862"
       inkscape:connector-curvature="0"
       sodipodi:nodetypes="csc" />
  </g>
</svg>
