<?xml version="1.0" encoding="UTF-8" standalone="no"?>
<!-- Created with Inkscape (http://www.inkscape.org/) -->

<svg
   xmlns:dc="http://purl.org/dc/elements/1.1/"
   xmlns:cc="http://creativecommons.org/ns#"
   xmlns:rdf="http://www.w3.org/1999/02/22-rdf-syntax-ns#"
   xmlns:svg="http://www.w3.org/2000/svg"
   xmlns="http://www.w3.org/2000/svg"
   xmlns:sodipodi="http://sodipodi.sourceforge.net/DTD/sodipodi-0.dtd"
   xmlns:inkscape="http://www.inkscape.org/namespaces/inkscape"
   width="100"
   height="100"
   viewBox="0 0 26.458333 26.458334"
   version="1.1"
   id="svg8"
   inkscape:version="0.92.2 (5c3e80d, 2017-08-06)"
   sodipodi:docname="logo_top.svg">
  <defs
     id="defs2" />
  <sodipodi:namedview
     id="base"
     pagecolor="#ffffff"
     bordercolor="#666666"
     borderopacity="1.0"
     inkscape:pageopacity="0.0"
     inkscape:pageshadow="2"
     inkscape:zoom="1.4"
     inkscape:cx="144.33703"
     inkscape:cy="17.237702"
     inkscape:document-units="mm"
     inkscape:current-layer="layer1"
     showgrid="false"
     units="px"
     showguides="true"
     inkscape:guide-bbox="true"
     inkscape:window-width="1454"
     inkscape:window-height="884"
     inkscape:window-x="1280"
     inkscape:window-y="28"
     inkscape:window-maximized="0" />
  <metadata
     id="metadata5">
    <rdf:RDF>
      <cc:Work
         rdf:about="">
        <dc:format>image/svg+xml</dc:format>
        <dc:type
           rdf:resource="http://purl.org/dc/dcmitype/StillImage" />
        <dc:title></dc:title>
      </cc:Work>
    </rdf:RDF>
  </metadata>
  <g
     inkscape:label="Layer 1"
     inkscape:groupmode="layer"
     id="layer1"
     transform="translate(0,-270.54165)">
    <circle
       style="opacity:1;fill:#bcd35f;fill-opacity:0.94117647;fill-rule:evenodd;stroke:none;stroke-width:0.1686646;stroke-linecap:round;stroke-linejoin:round;stroke-miterlimit:4;stroke-dasharray:none;stroke-dashoffset:0;stroke-opacity:1;paint-order:stroke markers fill"
       id="path1145"
       cx="13.234438"
       cy="284.72852"
       r="9.6262989" />
    <g
       id="g1055"
       transform="matrix(1.2160748,-0.38294483,0.38294483,1.2160748,-226.73151,-18.583035)">
      <path
         inkscape:connector-curvature="0"
         id="rect852"
         d="m 104.68818,284.02785 3.05615,8.29097 c 0.1977,0.53638 0.51594,0.53638 0.71365,0 l 3.05614,-8.29097 z"
         style="opacity:1;fill:#f2a553;fill-opacity:1;fill-rule:evenodd;stroke:none;stroke-width:0.13229167;stroke-linecap:round;stroke-linejoin:round;stroke-miterlimit:4;stroke-dasharray:none;stroke-dashoffset:0;stroke-opacity:1;paint-order:stroke markers fill" />
      <rect
         ry="0.66145831"
         y="282.71661"
         x="103.99069"
         height="1.3229166"
         width="8.2209816"
         id="rect848"
         style="opacity:1;fill:#f2a553;fill-opacity:1;fill-rule:evenodd;stroke:none;stroke-width:0.13229167;stroke-linecap:round;stroke-linejoin:round;stroke-miterlimit:4;stroke-dasharray:none;stroke-dashoffset:0;stroke-opacity:1;paint-order:stroke markers fill" />
      <path
         sodipodi:nodetypes="ccccccccccccccccccccc"
         inkscape:connector-curvature="0"
         id="path995"
         transform="matrix(0.26458333,0,0,0.26458333,0,270.54165)"
         d="m 394.67969,46.386719 c 0.87005,1.408603 2.33571,2.457452 4.13281,2.972656 1.94185,0.556694 4.42336,-0.499956 6.18359,-0.396484 -0.0186,-0.198488 -0.0286,-0.417988 -0.0508,-0.607422 -1.06435,-2.983597 -5.21328,-0.159118 -8.13281,-0.996094 -0.78342,-0.224595 -1.49516,-0.560886 -2.13281,-0.972656 z m 27.20703,0.498047 c -3.25168,0.09759 -2.12958,1.870994 -4.50391,2.734375 -3.06145,1.353637 -6.06936,-4.524029 -7.16992,-1.453125 0.78626,4.606072 1.44676,10.376797 -1.64062,11.554687 -0.24959,0.09522 -0.47941,0.146001 -0.69141,0.162109 0.4516,1.532905 1.23589,2.393192 2.69141,1.837891 3.08738,-1.17789 2.42688,-4.180758 1.64062,-8.78683 1.08016,-3.013992 2.55528,2.775082 5.55742,1.704142 0.41201,3.553397 -6.39857,18.319482 -9.85039,27.668626 -0.10739,0.291349 -0.2261,0.528721 -0.34961,0.736328 0.73592,1.238147 1.70957,1.000076 2.34961,-0.736328 L 421.4707,50.970703 c 2.6364,0.04487 2.31309,-2.384542 2.63672,-2.455078 0,-0.59617 -0.21476,-1.135731 -0.56054,-1.564453 -0.65368,-0.05998 -1.20206,-0.08015 -1.66016,-0.06641 z"
         style="opacity:1;fill:#d77744;fill-opacity:1;fill-rule:evenodd;stroke:none;stroke-width:0.50000006;stroke-linecap:round;stroke-linejoin:round;stroke-miterlimit:4;stroke-dasharray:none;stroke-dashoffset:0;stroke-opacity:1;paint-order:stroke markers fill" />
      <rect
         style="opacity:1;fill:none;fill-opacity:1;fill-rule:evenodd;stroke:#000000;stroke-width:0.13229167;stroke-linecap:round;stroke-linejoin:round;stroke-miterlimit:4;stroke-dasharray:none;stroke-dashoffset:0;stroke-opacity:1;paint-order:stroke markers fill"
         id="rect962"
         width="8.2209816"
         height="1.3229166"
         x="103.99069"
         y="282.71661"
         ry="0.66145831" />
      <path
         style="opacity:1;fill:none;fill-opacity:1;fill-rule:evenodd;stroke:none;stroke-width:0.13229167;stroke-linecap:round;stroke-linejoin:round;stroke-miterlimit:4;stroke-dasharray:none;stroke-dashoffset:0;stroke-opacity:1;paint-order:stroke markers fill"
         d="m 104.68818,284.02785 3.05615,8.29097 c 0.1977,0.53638 0.51594,0.53638 0.71365,0 l 3.05614,-8.29097 z"
         id="path946"
         inkscape:connector-curvature="0" />
      <rect
         style="opacity:1;fill:none;fill-opacity:1;fill-rule:evenodd;stroke:none;stroke-width:0.13229167;stroke-linecap:round;stroke-linejoin:round;stroke-miterlimit:4;stroke-dasharray:none;stroke-dashoffset:0;stroke-opacity:1;paint-order:stroke markers fill"
         id="rect948"
         width="8.2209816"
         height="1.3229166"
         x="103.99069"
         y="282.71661"
         ry="0.66145831" />
      <path
         sodipodi:nodetypes="cc"
         inkscape:connector-curvature="0"
         id="path861"
         d="m 109.27983,273.11277 c -2.29008,0.10012 -4.50102,2.34046 -3.37428,3.77518"
         style="opacity:1;fill:none;fill-rule:evenodd;stroke:#000000;stroke-width:0.13229167;stroke-linecap:round;stroke-linejoin:round;stroke-miterlimit:4;stroke-dasharray:none;stroke-opacity:1" />
      <path
         sodipodi:nodetypes="cc"
         inkscape:connector-curvature="0"
         id="path897"
         d="m 107.51061,286.50817 0.20346,0.32909"
         style="opacity:1;fill:none;fill-rule:evenodd;stroke:#000000;stroke-width:0.13229167;stroke-linecap:round;stroke-linejoin:round;stroke-miterlimit:4;stroke-dasharray:none;stroke-opacity:1" />
      <path
         style="opacity:1;fill:none;fill-rule:evenodd;stroke:#000000;stroke-width:0.13229167;stroke-linecap:round;stroke-linejoin:round;stroke-miterlimit:4;stroke-dasharray:none;stroke-opacity:1"
         d="m 107.93556,287.15037 1.41768,2.29302"
         id="path901"
         inkscape:connector-curvature="0"
         sodipodi:nodetypes="cc" />
      <path
         style="opacity:1;fill:none;fill-rule:evenodd;stroke:#000000;stroke-width:0.13229167;stroke-linecap:round;stroke-linejoin:round;stroke-miterlimit:4;stroke-dasharray:none;stroke-opacity:1"
         d="M 108.77446,290.57732 108.571,290.24823"
         id="path903"
         inkscape:connector-curvature="0"
         sodipodi:nodetypes="cc" />
      <path
         sodipodi:nodetypes="cc"
         inkscape:connector-curvature="0"
         id="path905"
         d="m 108.34951,289.93512 -1.41768,-2.29302"
         style="opacity:1;fill:none;fill-rule:evenodd;stroke:#000000;stroke-width:0.13229167;stroke-linecap:round;stroke-linejoin:round;stroke-miterlimit:4;stroke-dasharray:none;stroke-opacity:1" />
      <path
         style="opacity:1;fill:none;fill-rule:evenodd;stroke:#000000;stroke-width:0.13229167;stroke-linecap:round;stroke-linejoin:round;stroke-miterlimit:4;stroke-dasharray:none;stroke-opacity:1"
         d="m 108.77446,286.50817 -0.20346,0.32909"
         id="path907"
         inkscape:connector-curvature="0"
         sodipodi:nodetypes="cc" />
      <path
         sodipodi:nodetypes="ccccc"
         inkscape:connector-curvature="0"
         id="path979"
         transform="matrix(0.26458333,0,0,0.26458333,0,270.54165)"
         d="m 395.67188,50.970703 11.55078,31.335938 c -7.18569,-24.964683 -8.47963,-28.430036 -9.14369,-30.231549 l 6.97965,-1.041254 z"
         style="opacity:1;fill:#fee5a3;fill-opacity:1;fill-rule:evenodd;stroke:none;stroke-width:0.50000006;stroke-linecap:round;stroke-linejoin:round;stroke-miterlimit:4;stroke-dasharray:none;stroke-dashoffset:0;stroke-opacity:1;paint-order:stroke markers fill" />
      <path
         sodipodi:nodetypes="cc"
         inkscape:connector-curvature="0"
         id="path909"
         d="m 108.34951,287.15037 -1.41768,2.29302"
         style="opacity:1;fill:none;fill-rule:evenodd;stroke:#000000;stroke-width:0.13229167;stroke-linecap:round;stroke-linejoin:round;stroke-miterlimit:4;stroke-dasharray:none;stroke-opacity:1" />
      <path
         sodipodi:nodetypes="cc"
         inkscape:connector-curvature="0"
         id="path911"
         d="m 107.51061,290.57732 0.20346,-0.32909"
         style="opacity:1;fill:none;fill-rule:evenodd;stroke:#000000;stroke-width:0.13229167;stroke-linecap:round;stroke-linejoin:round;stroke-miterlimit:4;stroke-dasharray:none;stroke-opacity:1" />
      <path
         style="opacity:1;fill:none;fill-rule:evenodd;stroke:#000000;stroke-width:0.13229167;stroke-linecap:round;stroke-linejoin:round;stroke-miterlimit:4;stroke-dasharray:none;stroke-opacity:1"
         d="m 107.93556,289.93512 1.41768,-2.29302"
         id="path913"
         inkscape:connector-curvature="0"
         sodipodi:nodetypes="cc" />
      <circle
         style="opacity:1;fill:#d77744;fill-opacity:1;fill-rule:evenodd;stroke:none;stroke-width:0.13229167;stroke-linecap:round;stroke-linejoin:round;stroke-miterlimit:4;stroke-dasharray:none;stroke-dashoffset:0;stroke-opacity:1;paint-order:stroke markers fill"
         id="circle915"
         cx="109.49054"
         cy="285.82162"
         r="0.093017325" />
      <circle
         style="opacity:1;fill:#d77744;fill-opacity:1;fill-rule:evenodd;stroke:none;stroke-width:0.13229167;stroke-linecap:round;stroke-linejoin:round;stroke-miterlimit:4;stroke-dasharray:none;stroke-dashoffset:0;stroke-opacity:1;paint-order:stroke markers fill"
         id="circle917"
         cx="109.37538"
         cy="286.23798"
         r="0.16388766" />
      <circle
         style="opacity:1;fill:#d77744;fill-opacity:1;fill-rule:evenodd;stroke:none;stroke-width:0.13229167;stroke-linecap:round;stroke-linejoin:round;stroke-miterlimit:4;stroke-dasharray:none;stroke-dashoffset:0;stroke-opacity:1;paint-order:stroke markers fill"
         id="circle919"
         cx="109.8449"
         cy="286.11398"
         r="0.21704043" />
      <circle
         r="0.093017325"
         cy="290.93613"
         cx="107.9432"
         id="circle921"
         style="opacity:1;fill:#d77744;fill-opacity:1;fill-rule:evenodd;stroke:none;stroke-width:0.13229167;stroke-linecap:round;stroke-linejoin:round;stroke-miterlimit:4;stroke-dasharray:none;stroke-dashoffset:0;stroke-opacity:1;paint-order:stroke markers fill" />
      <circle
         r="0.16388766"
         cy="291.35248"
         cx="107.82804"
         id="circle923"
         style="opacity:1;fill:#d77744;fill-opacity:1;fill-rule:evenodd;stroke:none;stroke-width:0.13229167;stroke-linecap:round;stroke-linejoin:round;stroke-miterlimit:4;stroke-dasharray:none;stroke-dashoffset:0;stroke-opacity:1;paint-order:stroke markers fill" />
      <circle
         r="0.21704043"
         cy="291.22849"
         cx="108.29756"
         id="circle925"
         style="opacity:1;fill:#d77744;fill-opacity:1;fill-rule:evenodd;stroke:none;stroke-width:0.13229167;stroke-linecap:round;stroke-linejoin:round;stroke-miterlimit:4;stroke-dasharray:none;stroke-dashoffset:0;stroke-opacity:1;paint-order:stroke markers fill" />
      <path
         style="opacity:1;fill:none;fill-opacity:1;fill-rule:evenodd;stroke:#000000;stroke-width:0.13229167;stroke-linecap:round;stroke-linejoin:round;stroke-miterlimit:4;stroke-dasharray:none;stroke-dashoffset:0;stroke-opacity:1;paint-order:stroke markers fill"
         d="m 104.68818,284.02785 3.05615,8.29097 c 0.1977,0.53638 0.51594,0.53638 0.71365,0 l 3.05614,-8.29097 z"
         id="path960"
         inkscape:connector-curvature="0" />
      <path
         sodipodi:nodetypes="cccscscccccc"
         inkscape:connector-curvature="0"
         id="path857"
         d="m 109.27983,273.11277 c -2.05078,0.23534 -4.56419,2.12602 -3.37428,3.77518 -2.25868,0.90204 -1.37529,2.70611 -1.26953,2.70611 -1.63888,1.6246 -0.97492,3.09698 0.3542,3.47802 0.77246,0.22145 1.86984,-0.52566 2.15145,0.26375 0.14912,1.27386 -0.0369,3.38693 0.95952,3.00678 0.81687,-0.31165 0.64234,-1.8382 0.43431,-3.05689 0.29119,-0.81251 1.08692,0.74235 1.89693,0.3842 0.71795,-0.26107 0.2279,-0.83645 1.6375,-0.70527 1.13021,-1.23244 0.76159,-2.70098 -0.38468,-3.37059 0.1055,-0.8363 0.67954,-1.6427 -1.20271,-2.60588 1.52665,-1.1321 -2.78531,-2.3836 -1.20271,-3.87541 z"
         style="opacity:1;fill:#ff569b;fill-opacity:1;fill-rule:evenodd;stroke:none;stroke-width:0.13229167;stroke-linecap:round;stroke-linejoin:round;stroke-miterlimit:4;stroke-dasharray:none;stroke-opacity:1" />
      <path
         sodipodi:nodetypes="ccccccccccccccc"
         inkscape:connector-curvature="0"
         id="path969"
         transform="matrix(0.26458333,0,0,0.26458333,0,270.54165)"
         d="m 413.02539,9.7167969 c -1.22037,0.1400448 -2.48096,0.4507981 -3.72656,0.8730471 -3.32358,5.256623 9.97077,9.719171 4.90234,13.77539 6.59191,3.640366 4.58215,6.686838 4.21289,9.847657 4.01439,2.530809 5.30581,8.082193 1.34766,12.740234 -4.45175,-0.447104 -3.50256,1.275121 -5.11524,2.341797 0.87179,0.474106 1.80178,0.737436 2.73633,0.324219 2.71351,-0.986722 0.86183,-3.161814 6.18946,-2.666016 4.27166,-4.658041 2.87728,-10.209425 -1.45508,-12.740234 0.39874,-3.160819 2.56909,-6.207291 -4.54492,-9.847657 5.77001,-4.278803 -10.52836,-9.0101 -4.54688,-14.6484371 z m -6.47851,49.5625001 c 0.46914,0.57672 1.11456,0.7889 2.02539,0.441406 3.03163,-1.156619 2.44804,-6.736511 1.68164,-11.298828 -0.77941,4.446091 0.31264,6.777312 -3.70703,10.857422 z"
         style="opacity:1;fill:#d33d87;fill-opacity:1;fill-rule:evenodd;stroke:none;stroke-width:0.50000006;stroke-linecap:round;stroke-linejoin:round;stroke-miterlimit:4;stroke-dasharray:none;stroke-opacity:1" />
      <path
         sodipodi:nodetypes="ccccccsccccccccc"
         inkscape:connector-curvature="0"
         id="path974"
         transform="matrix(0.26458333,0,0,0.26458333,0,270.54165)"
         d="m 413.02539,9.7167969 c -7.75098,0.8894741 -17.24925,8.0364851 -12.75195,14.2695311 -8.53675,3.409285 -5.19843,10.227506 -4.79871,10.227506 -6.19419,6.14022 -3.71693,11.420234 1.30652,12.860385 0.78115,0.223942 1.64963,0.202321 2.52734,0.113281 -0.17881,-0.02765 -0.35629,-0.06424 -0.52734,-0.113281 -5.02345,-1.440151 -7.29273,-6.518059 -1.30664,-12.861328 0.27434,-0.290711 -3.73792,-6.817278 4.79883,-10.226563 -4.02918,-5.584251 3.1755,-11.887071 10.29297,-13.78125 0.1368,-0.161577 0.28597,-0.3251951 0.45898,-0.4882811 z m -8.36133,37.1425781 c -0.419,-0.01395 -0.88072,0.02735 -1.35156,0.08203 0.73646,0.149787 1.32101,0.540004 1.63281,1.414063 0.56361,4.814589 -0.13904,12.802022 3.62696,11.365234 0.0998,-0.03809 0.18521,-0.09312 0.27734,-0.140625 -5.52348,1.613939 0.69238,-12.498945 -4.18555,-12.720702 z"
         style="opacity:1;fill:#ff9dcf;fill-opacity:1;fill-rule:evenodd;stroke:none;stroke-width:0.50000006;stroke-linecap:round;stroke-linejoin:round;stroke-miterlimit:4;stroke-dasharray:none;stroke-opacity:1" />
      <path
         sodipodi:nodetypes="cscscccsc"
         inkscape:connector-curvature="0"
         id="path869"
         d="m 106.79008,278.92503 c -3.56341,0.36122 -4.08467,3.6582 -1.58277,4.18136 0.68774,0.14381 1.71225,-0.44376 1.93436,0.22944 0.24611,1.12429 0.004,3.51199 0.95952,3.00678 1.1225,-0.59325 0.46487,-2.27569 0.43431,-3.05689 0.087,-0.73827 1.09431,0.42014 1.51731,0.45358 1.01385,0.11922 0.82137,-1.12102 2.01712,-0.77465 1.21744,-1.39951 0.789,-2.71628 -0.43672,-3.38251 -0.39823,-0.21646 -0.86566,-0.39042 -1.36347,-0.51944"
         style="opacity:1;fill:none;fill-rule:evenodd;stroke:#000000;stroke-width:0.13229167;stroke-linecap:round;stroke-linejoin:round;stroke-miterlimit:4;stroke-dasharray:none;stroke-opacity:1" />
      <path
         style="opacity:1;fill:none;fill-rule:evenodd;stroke:#000000;stroke-width:0.13229167;stroke-linecap:round;stroke-linejoin:round;stroke-miterlimit:4;stroke-dasharray:none;stroke-opacity:1"
         d="m 109.27983,273.11277 c -2.29008,0.10012 -4.50102,2.34046 -3.37428,3.77518"
         id="path865"
         inkscape:connector-curvature="0"
         sodipodi:nodetypes="cc" />
      <path
         sodipodi:nodetypes="cc"
         inkscape:connector-curvature="0"
         id="path875"
         d="m 109.27983,273.11277 c -1.57299,1.19106 2.72112,3.17043 1.20271,3.87541"
         style="opacity:1;fill:none;fill-rule:evenodd;stroke:#000000;stroke-width:0.13229167;stroke-linecap:round;stroke-linejoin:round;stroke-miterlimit:4;stroke-dasharray:none;stroke-opacity:1" />
      <path
         style="opacity:1;fill:none;fill-rule:evenodd;stroke:#000000;stroke-width:0.13229167;stroke-linecap:round;stroke-linejoin:round;stroke-miterlimit:4;stroke-dasharray:none;stroke-opacity:1"
         d="m 107.33342,276.71032 c -0.21437,0.003 -0.41504,0.0167 -0.60268,0.0389"
         id="path867"
         inkscape:connector-curvature="0"
         sodipodi:nodetypes="cc" />
      <path
         style="opacity:1;fill:none;fill-rule:evenodd;stroke:#000000;stroke-width:0.13229167;stroke-linecap:round;stroke-linejoin:round;stroke-miterlimit:4;stroke-dasharray:none;stroke-opacity:1"
         d="m 109.86272,278.99175 c -0.16464,-0.0163 -0.33592,-0.0177 -0.51608,9.5e-4"
         id="path871"
         inkscape:connector-curvature="0"
         sodipodi:nodetypes="cc" />
      <ellipse
         ry="0.56794775"
         rx="0.37584776"
         cy="280.46268"
         cx="106.74912"
         id="path877"
         style="opacity:1;fill:#000000;fill-opacity:1;fill-rule:evenodd;stroke:none;stroke-width:0.13229167;stroke-linecap:round;stroke-linejoin:round;stroke-miterlimit:4;stroke-dasharray:none;stroke-dashoffset:0;stroke-opacity:1;paint-order:stroke markers fill" />
      <circle
         r="0.16495541"
         cy="280.26431"
         cx="106.8222"
         id="path879"
         style="opacity:1;fill:#ffffff;fill-opacity:1;fill-rule:evenodd;stroke:none;stroke-width:0.13229167;stroke-linecap:round;stroke-linejoin:round;stroke-miterlimit:4;stroke-dasharray:none;stroke-dashoffset:0;stroke-opacity:1;paint-order:stroke markers fill" />
      <path
         sodipodi:nodetypes="cc"
         inkscape:connector-curvature="0"
         id="path881"
         d="m 107.64053,281.49999 c 0.23647,0.15849 0.50669,0.27128 1.08668,-0.0354"
         style="opacity:1;fill:none;fill-rule:evenodd;stroke:#000000;stroke-width:0.13229167;stroke-linecap:round;stroke-linejoin:round;stroke-miterlimit:4;stroke-dasharray:none;stroke-opacity:1" />
      <ellipse
         style="opacity:1;fill:#000000;fill-opacity:1;fill-rule:evenodd;stroke:none;stroke-width:0.13229167;stroke-linecap:round;stroke-linejoin:round;stroke-miterlimit:4;stroke-dasharray:none;stroke-dashoffset:0;stroke-opacity:1;paint-order:stroke markers fill"
         id="ellipse883"
         cx="109.46583"
         cy="280.46268"
         rx="0.37584776"
         ry="0.56794775" />
      <circle
         style="opacity:1;fill:#ffffff;fill-opacity:1;fill-rule:evenodd;stroke:none;stroke-width:0.13229167;stroke-linecap:round;stroke-linejoin:round;stroke-miterlimit:4;stroke-dasharray:none;stroke-dashoffset:0;stroke-opacity:1;paint-order:stroke markers fill"
         id="circle885"
         cx="109.5389"
         cy="280.26431"
         r="0.16495541" />
      <circle
         r="0.21851748"
         cy="277.74976"
         cx="109.46545"
         id="path887"
         style="opacity:1;fill:#d33d87;fill-opacity:1;fill-rule:evenodd;stroke:none;stroke-width:0.13229167;stroke-linecap:round;stroke-linejoin:round;stroke-miterlimit:4;stroke-dasharray:none;stroke-dashoffset:0;stroke-opacity:1;paint-order:stroke markers fill" />
      <circle
         r="0.12402344"
         cy="281.6004"
         cx="110.2214"
         id="path889"
         style="opacity:1;fill:#d33d87;fill-opacity:1;fill-rule:evenodd;stroke:none;stroke-width:0.13229167;stroke-linecap:round;stroke-linejoin:round;stroke-miterlimit:4;stroke-dasharray:none;stroke-dashoffset:0;stroke-opacity:1;paint-order:stroke markers fill" />
      <circle
         r="0.21851748"
         cy="282.15555"
         cx="110.06784"
         id="path891"
         style="opacity:1;fill:#d33d87;fill-opacity:1;fill-rule:evenodd;stroke:none;stroke-width:0.13229167;stroke-linecap:round;stroke-linejoin:round;stroke-miterlimit:4;stroke-dasharray:none;stroke-dashoffset:0;stroke-opacity:1;paint-order:stroke markers fill" />
      <circle
         r="0.28938803"
         cy="281.9902"
         cx="110.69387"
         id="path893"
         style="opacity:1;fill:#d33d87;fill-opacity:1;fill-rule:evenodd;stroke:none;stroke-width:0.13229167;stroke-linecap:round;stroke-linejoin:round;stroke-miterlimit:4;stroke-dasharray:none;stroke-dashoffset:0;stroke-opacity:1;paint-order:stroke markers fill" />
      <circle
         r="0.30119976"
         cy="278.22223"
         cx="110.00879"
         id="path895"
         style="opacity:1;fill:#d33d87;fill-opacity:1;fill-rule:evenodd;stroke:none;stroke-width:0.13229167;stroke-linecap:round;stroke-linejoin:round;stroke-miterlimit:4;stroke-dasharray:none;stroke-dashoffset:0;stroke-opacity:1;paint-order:stroke markers fill" />
      <path
         sodipodi:nodetypes="cc"
         inkscape:connector-curvature="0"
         id="path873"
         d="m 109.29653,276.77102 c 2.09572,0.29127 2.96528,1.19563 2.38872,2.82304"
         style="opacity:1;fill:none;fill-rule:evenodd;stroke:#000000;stroke-width:0.13229167;stroke-linecap:round;stroke-linejoin:round;stroke-miterlimit:4;stroke-dasharray:none;stroke-opacity:1" />
      <path
         sodipodi:nodetypes="cc"
         inkscape:connector-curvature="0"
         id="path863"
         d="m 106.40042,276.79957 c -2.18648,0.41349 -2.347,2.11946 -1.78319,2.77674"
         style="opacity:1;fill:none;fill-rule:evenodd;stroke:#000000;stroke-width:0.13229167;stroke-linecap:round;stroke-linejoin:round;stroke-miterlimit:4;stroke-dasharray:none;stroke-opacity:1" />
    </g>
  </g>
</svg>
