<?xml version="1.0" encoding="UTF-8" standalone="no"?>
<!-- Created with Inkscape (http://www.inkscape.org/) -->

<svg
   xmlns:dc="http://purl.org/dc/elements/1.1/"
   xmlns:cc="http://creativecommons.org/ns#"
   xmlns:rdf="http://www.w3.org/1999/02/22-rdf-syntax-ns#"
   xmlns:svg="http://www.w3.org/2000/svg"
   xmlns="http://www.w3.org/2000/svg"
   xmlns:sodipodi="http://sodipodi.sourceforge.net/DTD/sodipodi-0.dtd"
   xmlns:inkscape="http://www.inkscape.org/namespaces/inkscape"
   width="100"
   height="100"
   viewBox="0 0 26.458333 26.458334"
   version="1.1"
   id="svg8"
   inkscape:version="0.92.2 (5c3e80d, 2017-08-06)"
   sodipodi:docname="no_results.svg">
  <defs
     id="defs2" />
  <sodipodi:namedview
     id="base"
     pagecolor="#ffffff"
     bordercolor="#666666"
     borderopacity="1.0"
     inkscape:pageopacity="0.0"
     inkscape:pageshadow="2"
     inkscape:zoom="0.98994949"
     inkscape:cx="183.48983"
     inkscape:cy="61.673676"
     inkscape:document-units="mm"
     inkscape:current-layer="layer1"
     showgrid="false"
     units="px"
     showguides="false"
     inkscape:guide-bbox="true"
     inkscape:window-width="1714"
     inkscape:window-height="998"
     inkscape:window-x="1280"
     inkscape:window-y="28"
     inkscape:window-maximized="0" />
  <metadata
     id="metadata5">
    <rdf:RDF>
      <cc:Work
         rdf:about="">
        <dc:format>image/svg+xml</dc:format>
        <dc:type
           rdf:resource="http://purl.org/dc/dcmitype/StillImage" />
        <dc:title></dc:title>
      </cc:Work>
    </rdf:RDF>
  </metadata>
  <g
     inkscape:label="Layer 1"
     inkscape:groupmode="layer"
     id="layer1"
     transform="translate(0,-270.54165)">
    <circle
       r="9.6262989"
       cy="284.39441"
       cx="13.234439"
       id="circle890"
       style="opacity:1;fill:#bcd35f;fill-opacity:1;fill-rule:evenodd;stroke:none;stroke-width:0.1686646;stroke-linecap:round;stroke-linejoin:round;stroke-miterlimit:4;stroke-dasharray:none;stroke-dashoffset:0;stroke-opacity:1;paint-order:stroke markers fill" />
    <path
       style="fill:#f2a553;fill-opacity:1;fill-rule:evenodd;stroke:none;stroke-width:0.1942406px;stroke-linecap:round;stroke-linejoin:round;stroke-opacity:1"
       d="m 13.625255,274.48465 c -0.03122,0.002 -0.06204,0.008 -0.09199,0.0176 -0.864131,0.27556 -0.520379,2.67115 -0.520379,2.67115 l 0.0041,0.016 -2.154391,0.78135 c 0,0 -1.9118467,-2.5664 -2.323888,-1.69964 -0.949079,1.99646 0.3813733,5.02967 0.3813733,5.02967 -6.8080393,2.58339 -5.5922843,11.51821 0.208253,11.58482 0,0 2.0116087,0.0534 3.0173877,0.0346 8.320635,-0.15563 8.723093,-7.52188 4.493265,-10.43606 1.768388,-1.34741 0.409623,-3.2832 -0.504362,-4.75578 0,0 -1.541756,-3.31444 -2.509406,-3.24373 z m 2.551781,9.79681 c 2.268805,2.14422 1.317141,5.48779 0.157613,6.03064 0,0 -0.404747,-1.79894 -0.858862,-3.91242 0.479563,-0.53044 0.61903,-1.30396 0.701249,-2.11822 z m -2.175578,3.03754 1.147217,3.62717 c -0.623014,0.31831 -1.123225,0.2068 -1.684652,0.30955 z"
       id="path921"
       inkscape:connector-curvature="0"
       sodipodi:nodetypes="cccccsccccccccccccccc" />
    <path
       inkscape:connector-curvature="0"
       style="fill:#d77744;fill-opacity:1;fill-rule:evenodd;stroke:none;stroke-width:0.1942406px;stroke-linecap:round;stroke-linejoin:round;stroke-opacity:1"
       d="m 13.625255,274.48465 c -0.03122,0.002 -0.06204,0.008 -0.09199,0.0176 -0.688488,0.21955 -0.613201,1.73589 -0.552936,2.36316 l 0.565856,-0.20515 -0.0041,-0.016 c 0,0 -0.196245,-1.3731 0.08371,-2.15955 -1.7e-4,10e-6 -2.65e-4,-2e-5 -5.29e-4,0 z m -4.7966077,1.60868 c -0.1246,-0.009 -0.225523,0.0423 -0.2899043,0.17777 -0.790064,1.66196 -0.0077,4.01822 0.2790543,4.76922 0.202419,-0.0957 0.412591,-0.18566 0.631486,-0.26872 0,0 -1.1747903,-2.67982 -0.527616,-4.65966 -0.03193,-0.009 -0.06356,-0.0164 -0.09302,-0.0186 z m -2.3889993,6.70502 c -3.868913,3.51416 -2.26264,10.03038 2.6887223,10.08724 0,0 2.0116077,0.0534 3.0173867,0.0346 2.888319,-0.054 4.820616,-0.9776 5.938139,-2.28151 -1.160219,1.01737 -2.930948,1.706 -5.408972,1.75235 -1.005779,0.0188 -3.0173877,-0.0346 -3.0173877,-0.0346 C 4.946416,292.30233 3.25961,286.39822 6.439648,282.79836 Z m 10.266555,0.95395 c -0.03273,0.32415 -0.07597,0.641 -0.144693,0.93948 1.413521,1.71013 1.115452,3.95732 0.382405,5.04723 1.121614,-0.65511 1.978446,-3.89225 -0.237712,-5.98671 z m -2.175579,3.03754 -0.209806,1.53841 0.725537,2.29391 c 0.200433,-0.0333 0.407935,-0.0909 0.631487,-0.20515 z"
       id="path958" />
    <path
       inkscape:connector-curvature="0"
       style="opacity:1;fill:#fffdaf;fill-opacity:1;fill-rule:evenodd;stroke:none;stroke-width:0.11093809;stroke-linecap:round;stroke-linejoin:round;stroke-miterlimit:4;stroke-dasharray:none;stroke-dashoffset:0;stroke-opacity:1;paint-order:stroke markers fill"
       d="m 15.178647,279.58924 a 1.1962425,1.5327445 28.497955 0 0 -0.254765,0.0315 1.1962425,1.5327445 28.497955 0 0 -1.280541,1.73219 1.1962425,1.5327445 28.497955 0 0 0.160714,0.65319 1.1962425,1.5327445 87.668365 0 1 0.05168,-0.0331 1.1962425,1.5327445 87.668365 0 1 1.876372,-5.3e-4 1.1962425,1.5327445 28.497955 0 0 0.47284,-1.2206 1.1962425,1.5327445 28.497955 0 0 -1.026295,-1.16272 z"
       id="path949" />
    <circle
       r="1.0837767"
       cy="280.32205"
       cx="12.181573"
       id="circle926"
       style="opacity:1;fill:#ffffff;fill-opacity:1;fill-rule:evenodd;stroke:none;stroke-width:0.13229167;stroke-linecap:round;stroke-linejoin:round;stroke-miterlimit:4;stroke-dasharray:none;stroke-dashoffset:0;stroke-opacity:1;paint-order:stroke markers fill" />
    <path
       style="fill:none;fill-rule:evenodd;stroke:#000000;stroke-width:0.13229167;stroke-linecap:round;stroke-linejoin:round;stroke-miterlimit:4;stroke-dasharray:none;stroke-opacity:1"
       d="m 16.325567,290.35377 -0.849803,-3.95418 c 0.477564,-0.52823 0.618973,-1.29656 0.701339,-2.10707"
       id="path885"
       inkscape:connector-curvature="0"
       sodipodi:nodetypes="ccc" />
    <path
       style="fill:none;fill-rule:evenodd;stroke:#000000;stroke-width:0.13229167;stroke-linecap:round;stroke-linejoin:round;stroke-miterlimit:4;stroke-dasharray:none;stroke-opacity:1"
       d="m 14.018959,276.8263 -3.15641,1.14464 c 0,0 -1.9119097,-2.56637 -2.323951,-1.69961 -0.94908,1.99646 0.3815453,5.02944 0.3815453,5.02944 -6.8080373,2.58339 -5.5924283,11.51845 0.208114,11.58506 0,0 2.0118877,0.0534 3.0176667,0.0346 8.963803,-0.16765 8.74157,-8.70782 3.433896,-11.03009 -1.518757,-0.6645 -2.582518,0.65638 -1.73429,1.04058 5.210287,1.63428 4.64809,8.06985 0.173429,8.28991 l -2.115837,0.10406"
       id="path883"
       inkscape:connector-curvature="0"
       sodipodi:nodetypes="ccscssscsc" />
    <path
       sodipodi:nodetypes="ccccccc"
       inkscape:connector-curvature="0"
       id="path939"
       d="m 13.464023,291.25572 1.337919,-1.40646 5.217665,-5.14928 c 1.743324,0.97413 2.801038,-0.55296 1.456804,-0.86715 1.568318,0.15227 0.687553,-2.6838 -0.797773,-1.04057 0.406126,-1.70207 -2.230278,-0.92936 -1.318062,0.79777 -2.046463,1.66319 -4.092927,2.82985 -6.13939,3.85013"
       style="fill:#f2a553;fill-opacity:1;fill-rule:evenodd;stroke:none;stroke-width:0.13229167;stroke-linecap:round;stroke-linejoin:round;stroke-miterlimit:4;stroke-dasharray:none;stroke-opacity:1" />
    <path
       style="fill:#ff569b;fill-opacity:1;fill-rule:evenodd;stroke:none;stroke-width:0.13229167;stroke-linecap:round;stroke-linejoin:round;stroke-miterlimit:4;stroke-dasharray:none;stroke-opacity:1"
       d="m 20.199308,281.84115 c -0.482291,-0.0304 -1.110369,0.43192 -1.02216,1.18598 0.518248,-0.29089 1.192927,-0.0999 0.97255,0.82372 0.752544,-0.83255 1.347502,-0.51501 1.549776,-0.0191 1.250799,-0.1305 0.387675,-2.59721 -1.020609,-1.03921 0.152297,-0.63828 -0.123724,-0.92895 -0.479557,-0.95137 z m 1.529106,2.07946 c 0.142327,0.47002 -0.05388,1.04112 -0.781349,0.97049 0.125526,0.0293 0.223475,0.0719 0.30851,0.11937 0.812413,-0.0748 1.129871,-0.78165 0.472839,-1.08986 z"
       id="path1023"
       inkscape:connector-curvature="0"
       sodipodi:nodetypes="sccccscccc" />
    <path
       style="fill:none;fill-rule:evenodd;stroke:#000000;stroke-width:0.13229167;stroke-linecap:round;stroke-linejoin:round;stroke-miterlimit:4;stroke-dasharray:none;stroke-opacity:1"
       d="m 15.148802,290.94598 -0.34686,-1.09672 c 0,0 0,0 5.217665,-5.14928 1.743324,0.97413 2.801038,-0.55296 1.456804,-0.86715 1.568318,0.15227 0.687553,-2.6838 -0.797773,-1.04057 0.406126,-1.70207 -2.230278,-0.92936 -1.318062,0.79777 -2.046463,1.66319 -4.092927,2.82985 -6.13939,3.85013"
       id="path887"
       inkscape:connector-curvature="0"
       sodipodi:nodetypes="ccccccc" />
    <path
       style="fill:none;fill-rule:evenodd;stroke:#000000;stroke-width:0.13229167;stroke-linecap:round;stroke-linejoin:round;stroke-miterlimit:4;stroke-dasharray:none;stroke-opacity:1"
       d="m 10.959842,278.45849 0.407739,0.70623"
       id="path889"
       inkscape:connector-curvature="0" />
    <path
       style="fill:none;fill-rule:evenodd;stroke:#000000;stroke-width:0.13229167;stroke-linecap:round;stroke-linejoin:round;stroke-miterlimit:4;stroke-dasharray:none;stroke-opacity:1"
       d="m 11.376794,278.16418 0.490533,0.88295"
       id="path891"
       inkscape:connector-curvature="0" />
    <path
       style="fill:none;fill-rule:evenodd;stroke:#000000;stroke-width:0.13229167;stroke-linecap:round;stroke-linejoin:round;stroke-miterlimit:4;stroke-dasharray:none;stroke-opacity:1"
       d="m 14.467145,277.15858 0.490531,0.78485"
       id="path893"
       inkscape:connector-curvature="0" />
    <path
       style="fill:none;fill-rule:evenodd;stroke:#000000;stroke-width:0.13229167;stroke-linecap:round;stroke-linejoin:round;stroke-miterlimit:4;stroke-dasharray:none;stroke-opacity:1"
       d="m 14.982202,276.88879 0.490532,0.71127"
       id="path895"
       inkscape:connector-curvature="0" />
    <path
       style="fill:none;fill-rule:evenodd;stroke:#000000;stroke-width:0.13229167;stroke-linecap:round;stroke-linejoin:round;stroke-miterlimit:4;stroke-dasharray:none;stroke-opacity:1"
       d="m 15.153886,279.82065 c -0.0843,0.11446 -0.15946,0.22891 -0.30658,0.34337 -0.2003,0.0914 -0.4006,0.0614 -0.6009,0.0245"
       id="path897"
       inkscape:connector-curvature="0"
       sodipodi:nodetypes="ccc" />
    <circle
       style="opacity:1;fill:none;fill-opacity:1;fill-rule:evenodd;stroke:#000000;stroke-width:0.13229167;stroke-linecap:round;stroke-linejoin:round;stroke-miterlimit:4;stroke-dasharray:none;stroke-dashoffset:0;stroke-opacity:1;paint-order:stroke markers fill"
       id="path900"
       cx="12.181573"
       cy="280.32205"
       r="1.0837767" />
    <circle
       style="opacity:1;fill:#000000;fill-opacity:1;fill-rule:evenodd;stroke:none;stroke-width:0.13229167;stroke-linecap:round;stroke-linejoin:round;stroke-miterlimit:4;stroke-dasharray:none;stroke-dashoffset:0;stroke-opacity:1;paint-order:stroke markers fill"
       id="path902"
       cx="12.058404"
       cy="280.24155"
       r="0.36706889" />
    <ellipse
       style="opacity:1;fill:#000000;fill-opacity:1;fill-rule:evenodd;stroke:none;stroke-width:0.16712461;stroke-linecap:round;stroke-linejoin:round;stroke-miterlimit:4;stroke-dasharray:none;stroke-dashoffset:0;stroke-opacity:1;paint-order:stroke markers fill"
       id="path909"
       cx="14.996324"
       cy="281.02148"
       rx="0.23485731"
       ry="0.3678987" />
    <path
       style="fill:none;fill-rule:evenodd;stroke:#000000;stroke-width:0.13229167;stroke-linecap:round;stroke-linejoin:round;stroke-miterlimit:4;stroke-dasharray:none;stroke-opacity:1"
       d="m 12.541808,282.05164 -0.846169,0.77258"
       id="path911"
       inkscape:connector-curvature="0" />
    <path
       style="fill:none;fill-rule:evenodd;stroke:#000000;stroke-width:0.13229167;stroke-linecap:round;stroke-linejoin:round;stroke-miterlimit:4;stroke-dasharray:none;stroke-opacity:1"
       d="m 12.92197,282.23559 -0.735799,0.9688"
       id="path913"
       inkscape:connector-curvature="0" />
    <path
       style="fill:none;fill-rule:evenodd;stroke:#000000;stroke-width:0.13229167;stroke-linecap:round;stroke-linejoin:round;stroke-miterlimit:4;stroke-dasharray:none;stroke-opacity:1"
       d="m 16.880539,279.77459 c 0.08671,-0.0173 1.456805,-0.26014 1.456805,-0.26014"
       id="path915"
       inkscape:connector-curvature="0" />
    <path
       style="fill:none;fill-rule:evenodd;stroke:#000000;stroke-width:0.13229167;stroke-linecap:round;stroke-linejoin:round;stroke-miterlimit:4;stroke-dasharray:none;stroke-opacity:1"
       d="m 16.984596,280.29489 1.127289,-0.0173"
       id="path917"
       inkscape:connector-curvature="0" />
    <path
       sodipodi:nodetypes="ccsc"
       inkscape:connector-curvature="0"
       id="path924"
       d="m 16.711492,282.42994 c 1.66188,-1.34473 0.324955,-3.24909 -0.576698,-4.70181 0,0 -1.643095,-3.53139 -2.601436,-3.22578 -0.864132,0.27556 -0.520289,2.67081 -0.520289,2.67081"
       style="fill:none;fill-rule:evenodd;stroke:#000000;stroke-width:0.13229167;stroke-linecap:round;stroke-linejoin:round;stroke-miterlimit:4;stroke-dasharray:none;stroke-opacity:1" />
    <circle
       style="opacity:1;fill:#ffffff;fill-opacity:1;fill-rule:evenodd;stroke:none;stroke-width:0.13229167;stroke-linecap:round;stroke-linejoin:round;stroke-miterlimit:4;stroke-dasharray:none;stroke-dashoffset:0;stroke-opacity:1;paint-order:stroke markers fill"
       id="circle928"
       cx="16.240717"
       cy="278.60519"
       r="1.0837767" />
    <circle
       r="1.0837767"
       cy="278.60519"
       cx="16.240717"
       id="circle904"
       style="opacity:1;fill:none;fill-opacity:1;fill-rule:evenodd;stroke:#000000;stroke-width:0.13229167;stroke-linecap:round;stroke-linejoin:round;stroke-miterlimit:4;stroke-dasharray:none;stroke-dashoffset:0;stroke-opacity:1;paint-order:stroke markers fill" />
    <circle
       r="0.36706889"
       cy="278.60129"
       cx="15.956239"
       id="circle906"
       style="opacity:1;fill:#000000;fill-opacity:1;fill-rule:evenodd;stroke:none;stroke-width:0.13229167;stroke-linecap:round;stroke-linejoin:round;stroke-miterlimit:4;stroke-dasharray:none;stroke-dashoffset:0;stroke-opacity:1;paint-order:stroke markers fill" />
    <path
       style="fill:none;fill-rule:evenodd;stroke:#000000;stroke-width:0.13229167;stroke-linecap:round;stroke-linejoin:round;stroke-miterlimit:4;stroke-dasharray:none;stroke-opacity:1"
       d="m 14.801942,289.84926 -1.337919,1.40646"
       id="path937"
       inkscape:connector-curvature="0" />
    <path
       style="opacity:1;fill:#fffdaf;fill-opacity:1;fill-rule:evenodd;stroke:none;stroke-width:0.07940108;stroke-linecap:round;stroke-linejoin:round;stroke-miterlimit:4;stroke-dasharray:none;stroke-dashoffset:0;stroke-opacity:1;paint-order:stroke markers fill"
       d="m 10.76958,284.91425 c -0.03531,0.13504 -1.0958397,-0.21711 -2.327532,-0.53932 -1.231693,-0.32221 -2.168124,-0.49244 -2.132775,-0.62749 0.03531,-0.13505 1.129238,-0.21718 2.3609403,0.10503 1.231692,0.32221 2.1347107,0.92675 2.0993667,1.06178 z"
       id="path941"
       inkscape:connector-curvature="0"
       sodipodi:nodetypes="cscsc" />
    <ellipse
       transform="rotate(14.660034)"
       ry="0.25273576"
       rx="2.3051996"
       cy="274.55731"
       cx="79.722992"
       id="ellipse943"
       style="opacity:1;fill:#fffdaf;fill-opacity:1;fill-rule:evenodd;stroke:none;stroke-width:0.07940108;stroke-linecap:round;stroke-linejoin:round;stroke-miterlimit:4;stroke-dasharray:none;stroke-dashoffset:0;stroke-opacity:1;paint-order:stroke markers fill" />
    <path
       style="opacity:1;fill:#fffdaf;fill-opacity:1;fill-rule:evenodd;stroke:none;stroke-width:0.07940108;stroke-linecap:round;stroke-linejoin:round;stroke-miterlimit:4;stroke-dasharray:none;stroke-dashoffset:0;stroke-opacity:1;paint-order:stroke markers fill"
       d="m 9.5411623,288.07979 c -0.03531,0.13505 -1.2294663,0.31741 -2.4611583,-0.005 -1.231702,-0.32221 -2.034493,-1.02698 -1.999148,-1.16201 0.03535,-0.13503 1.029041,0.28398 2.260704,0.60618 1.2316633,0.3222 2.2348963,0.4256 2.1996023,0.56063 z"
       id="ellipse945"
       inkscape:connector-curvature="0"
       sodipodi:nodetypes="cscsc" />
    <circle
       style="opacity:1;fill:#ff569b;fill-opacity:1;fill-rule:evenodd;stroke:none;stroke-width:0.13229166;stroke-linecap:round;stroke-linejoin:round;stroke-miterlimit:4;stroke-dasharray:none;stroke-dashoffset:0;stroke-opacity:1;paint-order:stroke markers fill"
       id="path1028"
       cx="21.321062"
       cy="286.0188"
       r="0.40159971" />
    <circle
       style="opacity:1;fill:#ff569b;fill-opacity:1;fill-rule:evenodd;stroke:none;stroke-width:0.13229166;stroke-linecap:round;stroke-linejoin:round;stroke-miterlimit:4;stroke-dasharray:none;stroke-dashoffset:0;stroke-opacity:1;paint-order:stroke markers fill"
       id="path1030"
       cx="20.742281"
       cy="287.49527"
       r="0.2716704" />
    <circle
       style="opacity:1;fill:#ff569b;fill-opacity:1;fill-rule:evenodd;stroke:none;stroke-width:0.13229166;stroke-linecap:round;stroke-linejoin:round;stroke-miterlimit:4;stroke-dasharray:none;stroke-dashoffset:0;stroke-opacity:1;paint-order:stroke markers fill"
       id="path1032"
       cx="21.486422"
       cy="288.23941"
       r="0.14174107" />
  </g>
</svg>
