<?xml version="1.0" standalone="no"?>
<!DOCTYPE svg PUBLIC "-//W3C//DTD SVG 20010904//EN"
 "http://www.w3.org/TR/2001/REC-SVG-20010904/DTD/svg10.dtd">
<svg version="1.0" xmlns="http://www.w3.org/2000/svg"
 width="300.000000pt" height="300.000000pt" viewBox="0 0 300.000000 300.000000"
 preserveAspectRatio="xMidYMid meet">
<metadata>
Created by potrace 1.14, written by Peter Selinger 2001-2017
</metadata>
<g transform="translate(0.000000,300.000000) scale(0.100000,-0.100000)"
fill="#000000" stroke="none">
<path d="M1088 2626 c-101 -29 -180 -96 -222 -185 -18 -39 -21 -70 -24 -203
l-4 -158 -119 0 c-87 0 -121 -3 -124 -12 -12 -35 -315 -1863 -311 -1874 8 -21
1814 -21 1822 -1 3 8 -47 321 -111 696 -63 374 -115 682 -115 684 0 1 20 1 45
-1 l45 -4 0 -88 c0 -68 3 -89 15 -94 32 -12 37 30 30 247 -5 142 -4 232 4 272
16 87 58 163 109 200 38 26 53 30 107 30 84 0 137 -35 180 -120 29 -57 30 -62
33 -227 l4 -168 -174 -2 c-165 -3 -173 -4 -173 -23 0 -19 8 -20 173 -23 l172
-2 0 -83 c0 -83 10 -110 36 -100 21 8 20 486 -1 568 -31 118 -106 201 -204
225 -108 26 -221 -40 -277 -163 -27 -59 -29 -70 -32 -229 l-4 -168 -33 0 c-19
0 -40 -6 -47 -14 -12 -11 -20 22 -52 217 -21 127 -40 237 -43 244 -4 9 -31 13
-99 13 -87 0 -94 -2 -94 -20 0 -17 8 -19 77 -22 l77 -3 147 -875 c81 -481 150
-887 153 -902 l6 -28 -866 0 -866 0 6 27 c3 16 71 417 151 893 80 476 148 871
150 878 3 8 33 12 105 12 l100 0 0 -85 c0 -78 2 -85 20 -85 18 0 20 7 20 88 1
382 3 414 33 474 51 103 152 160 282 160 130 0 231 -60 281 -167 21 -45 24
-64 24 -192 l0 -143 -259 0 c-262 0 -287 -3 -261 -35 10 -12 56 -15 266 -15
l253 0 3 -82 c3 -75 5 -83 23 -83 19 0 20 7 20 260 0 256 0 261 -25 310 -34
71 -108 139 -177 166 -71 27 -189 34 -255 15z"/>
<path d="M2545 1600 c-14 -22 10 -30 86 -30 l79 0 0 -670 0 -670 -252 -2
c-245 -3 -253 -4 -253 -23 0 -20 7 -20 270 -20 l270 0 3 713 2 712 -99 0 c-56
0 -103 -4 -106 -10z"/>
<path d="M1020 1269 c-94 -38 -128 -154 -76 -265 27 -58 124 -166 198 -220
l49 -37 54 37 c125 87 225 230 225 324 0 122 -120 206 -224 157 -20 -10 -36
-21 -36 -26 0 -15 -18 -10 -56 16 -39 26 -89 32 -134 14z"/>
</g>
</svg>
